<svg width="44" height="43" viewBox="0 0 44 43" fill="none" xmlns="http://www.w3.org/2000/svg">
<rect x="1" y="0.5" width="42" height="42" rx="21" fill="white"/>
<rect x="1" y="0.5" width="42" height="42" rx="21" stroke="#6C6C6C"/>
<path d="M24.143 21.5L17.7117 27.9313C17.493 28.15 17.3872 28.4052 17.3945 28.6969C17.4018 28.9886 17.5148 29.2438 17.7336 29.4625C17.9523 29.6813 18.2076 29.7907 18.4992 29.7907C18.7909 29.7907 19.0461 29.6813 19.2648 29.4625L26.0023 22.7469C26.1773 22.5719 26.3086 22.375 26.3961 22.1563C26.4836 21.9375 26.5273 21.7188 26.5273 21.5C26.5273 21.2813 26.4836 21.0625 26.3961 20.8438C26.3086 20.625 26.1773 20.4282 26.0023 20.2532L19.2648 13.5157C19.0461 13.2969 18.7872 13.1912 18.4883 13.1985C18.1893 13.2058 17.9305 13.3188 17.7117 13.5375C17.493 13.7563 17.3836 14.0115 17.3836 14.3032C17.3836 14.5948 17.493 14.85 17.7117 15.0688L24.143 21.5Z" fill="#6C6C6C"/>
</svg>
