<svg width="49" height="49" viewBox="0 0 49 49" fill="none" xmlns="http://www.w3.org/2000/svg">
<path d="M31.5 22.4294C32.3333 22.4294 33.0417 22.1378 33.625 21.5544C34.2083 20.9711 34.5 20.2628 34.5 19.4294C34.5 18.5961 34.2083 17.8878 33.625 17.3044C33.0417 16.7211 32.3333 16.4294 31.5 16.4294C30.6667 16.4294 29.9583 16.7211 29.375 17.3044C28.7917 17.8878 28.5 18.5961 28.5 19.4294C28.5 20.2628 28.7917 20.9711 29.375 21.5544C29.9583 22.1378 30.6667 22.4294 31.5 22.4294ZM17.5 22.4294C18.3333 22.4294 19.0417 22.1378 19.625 21.5544C20.2083 20.9711 20.5 20.2628 20.5 19.4294C20.5 18.5961 20.2083 17.8878 19.625 17.3044C19.0417 16.7211 18.3333 16.4294 17.5 16.4294C16.6667 16.4294 15.9583 16.7211 15.375 17.3044C14.7917 17.8878 14.5 18.5961 14.5 19.4294C14.5 20.2628 14.7917 20.9711 15.375 21.5544C15.9583 22.1378 16.6667 22.4294 17.5 22.4294ZM24.5 44.4294C21.7333 44.4294 19.1333 43.9044 16.7 42.8544C14.2667 41.8044 12.15 40.3794 10.35 38.5794C8.55 36.7794 7.125 34.6628 6.075 32.2294C5.025 29.7961 4.5 27.1961 4.5 24.4294C4.5 21.6628 5.025 19.0628 6.075 16.6294C7.125 14.1961 8.55 12.0794 10.35 10.2794C12.15 8.47944 14.2667 7.05444 16.7 6.00444C19.1333 4.95444 21.7333 4.42944 24.5 4.42944C27.2667 4.42944 29.8667 4.95444 32.3 6.00444C34.7333 7.05444 36.85 8.47944 38.65 10.2794C40.45 12.0794 41.875 14.1961 42.925 16.6294C43.975 19.0628 44.5 21.6628 44.5 24.4294C44.5 27.1961 43.975 29.7961 42.925 32.2294C41.875 34.6628 40.45 36.7794 38.65 38.5794C36.85 40.3794 34.7333 41.8044 32.3 42.8544C29.8667 43.9044 27.2667 44.4294 24.5 44.4294ZM24.5 40.4294C28.9667 40.4294 32.75 38.8794 35.85 35.7794C38.95 32.6794 40.5 28.8961 40.5 24.4294C40.5 19.9628 38.95 16.1794 35.85 13.0794C32.75 9.97944 28.9667 8.42944 24.5 8.42944C20.0333 8.42944 16.25 9.97944 13.15 13.0794C10.05 16.1794 8.5 19.9628 8.5 24.4294C8.5 28.8961 10.05 32.6794 13.15 35.7794C16.25 38.8794 20.0333 40.4294 24.5 40.4294ZM24.5 35.4294C26.4333 35.4294 28.2167 34.9628 29.85 34.0294C31.4833 33.0961 32.8 31.8294 33.8 30.2294C34 29.8294 33.9833 29.4294 33.75 29.0294C33.5167 28.6294 33.1667 28.4294 32.7 28.4294H16.3C15.8333 28.4294 15.4833 28.6294 15.25 29.0294C15.0167 29.4294 15 29.8294 15.2 30.2294C16.2 31.8294 17.525 33.0961 19.175 34.0294C20.825 34.9628 22.6 35.4294 24.5 35.4294Z" fill="url(#paint0_linear_517_10292)"/>
<defs>
<linearGradient id="paint0_linear_517_10292" x1="24.5" y1="4.42944" x2="24.5" y2="44.4294" gradientUnits="userSpaceOnUse">
<stop stop-color="#7F19A0"/>
<stop offset="1" stop-color="#C82D8C"/>
</linearGradient>
</defs>
</svg>
