<svg width="48" height="49" viewBox="0 0 48 49" fill="none" xmlns="http://www.w3.org/2000/svg">
<path d="M24 34.9795L15.7 39.9795C15.3334 40.2128 14.95 40.3128 14.55 40.2795C14.15 40.2461 13.8 40.1128 13.5 39.8795C13.2 39.6461 12.9667 39.3545 12.8 39.0045C12.6334 38.6545 12.6 38.2628 12.7 37.8295L14.9 28.3795L7.55003 22.0295C7.2167 21.7295 7.00836 21.3878 6.92503 21.0045C6.8417 20.6211 6.8667 20.2461 7.00003 19.8795C7.13336 19.5128 7.33336 19.2128 7.60003 18.9795C7.8667 18.7461 8.23336 18.5961 8.70003 18.5295L18.4 17.6795L22.15 8.77947C22.3167 8.37947 22.575 8.07947 22.925 7.87947C23.275 7.67947 23.6334 7.57947 24 7.57947C24.3667 7.57947 24.725 7.67947 25.075 7.87947C25.425 8.07947 25.6834 8.37947 25.85 8.77947L29.6 17.6795L39.3 18.5295C39.7667 18.5961 40.1334 18.7461 40.4 18.9795C40.6667 19.2128 40.8667 19.5128 41 19.8795C41.1334 20.2461 41.1584 20.6211 41.075 21.0045C40.9917 21.3878 40.7834 21.7295 40.45 22.0295L33.1 28.3795L35.3 37.8295C35.4 38.2628 35.3667 38.6545 35.2 39.0045C35.0334 39.3545 34.8 39.6461 34.5 39.8795C34.2 40.1128 33.85 40.2461 33.45 40.2795C33.05 40.3128 32.6667 40.2128 32.3 39.9795L24 34.9795Z" fill="url(#paint0_linear_517_10302)"/>
<defs>
<linearGradient id="paint0_linear_517_10302" x1="24" y1="7.57947" x2="24" y2="40.2857" gradientUnits="userSpaceOnUse">
<stop stop-color="#7F19A0"/>
<stop offset="1" stop-color="#C82D8C"/>
</linearGradient>
</defs>
</svg>
