<svg width="136" height="116" viewBox="0 0 136 116" fill="none" xmlns="http://www.w3.org/2000/svg">
<path d="M136.324 0.380417C136.535 0.201215 136.56 -0.114375 136.38 -0.324473C136.201 -0.534572 135.886 -0.559619 135.676 -0.380417L136.324 0.380417ZM86.4342 41.6196C86.2241 41.7988 86.199 42.1144 86.3782 42.3245C86.5574 42.5346 86.873 42.5596 87.0831 42.3804L86.4342 41.6196ZM49.5659 74.3804C49.776 74.2012 49.801 73.8856 49.6218 73.6755C49.4426 73.4654 49.127 73.4404 48.9169 73.6196L49.5659 74.3804ZM-0.324473 115.62C-0.534572 115.799 -0.559619 116.114 -0.380417 116.324C-0.201215 116.535 0.114375 116.56 0.324473 116.38L-0.324473 115.62ZM0.324473 -0.380417C0.114375 -0.559619 -0.201215 -0.534572 -0.380417 -0.324473C-0.559619 -0.114375 -0.534572 0.201215 -0.324473 0.380417L0.324473 -0.380417ZM48.9169 42.3804C49.127 42.5596 49.4426 42.5346 49.6218 42.3245C49.801 42.1144 49.776 41.7988 49.5659 41.6196L48.9169 42.3804ZM87.0831 73.6196C86.873 73.4404 86.5574 73.4654 86.3782 73.6755C86.199 73.8856 86.2241 74.2012 86.4342 74.3804L87.0831 73.6196ZM135.676 116.38C135.886 116.56 136.201 116.535 136.38 116.324C136.56 116.114 136.535 115.799 136.324 115.62L135.676 116.38ZM136 0L135.676 -0.380417L86.4342 41.6196L86.7586 42L87.0831 42.3804L136.324 0.380417L136 0ZM49.2414 74L48.9169 73.6196L-0.324473 115.62L0 116L0.324473 116.38L49.5659 74.3804L49.2414 74ZM0 0L-0.324473 0.380417L48.9169 42.3804L49.2414 42L49.5659 41.6196L0.324473 -0.380417L0 0ZM86.7586 74L86.4342 74.3804L135.676 116.38L136 116L136.324 115.62L87.0831 73.6196L86.7586 74Z" fill="#BBBBBB"/>
</svg>
