<svg width="25" height="24" viewBox="0 0 25 24" fill="none" xmlns="http://www.w3.org/2000/svg">
<path fill-rule="evenodd" clip-rule="evenodd" d="M6.80008 0.465384C8.35854 0.11904 10.2492 0 12.5 0C14.7508 0 16.6414 0.11904 18.1999 0.465384C19.772 0.814764 21.0786 1.4112 22.0837 2.4163C23.0888 3.42139 23.6852 4.72802 24.0346 6.30008C24.381 7.85854 24.5 9.74916 24.5 12C24.5 14.2508 24.381 16.1414 24.0346 17.6999C23.6852 19.272 23.0888 20.5786 22.0837 21.5837C21.0786 22.5888 19.772 23.1852 18.1999 23.5346C16.6414 23.881 14.7508 24 12.5 24C10.2492 24 8.35854 23.881 6.80008 23.5346C5.22802 23.1852 3.92139 22.5888 2.9163 21.5837C1.9112 20.5786 1.31476 19.272 0.965384 17.6999C0.61904 16.1414 0.5 14.2508 0.5 12C0.5 9.74916 0.61904 7.85854 0.965384 6.30008C1.31476 4.72802 1.9112 3.42139 2.9163 2.4163C3.92139 1.4112 5.22802 0.814764 6.80008 0.465384ZM8.9 11.4C8.9 9.74316 10.2432 8.4 11.9 8.4C13.5568 8.4 14.9 9.74316 14.9 11.4C14.9 13.0568 13.5568 14.4 11.9 14.4C10.2432 14.4 8.9 13.0568 8.9 11.4ZM11.9 6C8.91766 6 6.5 8.41766 6.5 11.4C6.5 14.3824 8.91766 16.8 11.9 16.8C12.9566 16.8 13.9424 16.4965 14.7748 15.972L16.4515 17.6485C16.9201 18.1171 17.6799 18.1171 18.1485 17.6485C18.6171 17.1799 18.6171 16.4201 18.1485 15.9515L16.472 14.2748C16.9965 13.4424 17.3 12.4566 17.3 11.4C17.3 8.41766 14.8824 6 11.9 6Z" fill="#121212"/>
</svg>
