<svg width="122" height="28" viewBox="0 0 122 28" fill="none" xmlns="http://www.w3.org/2000/svg">
<path d="M10.6953 0.896973C13.2417 0.89698 15.3713 1.22165 17.0381 1.9624C20.0939 3.2588 21.668 5.75923 21.668 9.37061V9.50928C21.6679 13.1206 19.8164 15.2043 17.2236 16.3618L23.2422 27.0571H14.4922L10.3711 19.4175L9.62988 18.0747H8.28809V27.103H0V0.896973H10.6953ZM35.6924 0.896973V7.28662H25.3682V10.9907H33.5625V16.8247H25.3682V20.7603H36.2949V27.103H25.0898L19.3027 16.4077C21.8955 15.2502 23.7471 13.1665 23.7471 9.55518V9.4165C23.7471 5.06433 21.4785 2.33256 17.0801 1.31396V0.896973H35.6924ZM50.8838 18.4448L55.7451 0.897949H63.5234L55.0508 27.103H45.6982L37.04 0.897949H46.0225L50.8838 18.4448ZM73.9873 27.103H65.6074V0.897949H73.9873V27.103ZM90.6084 0.897949C97.0439 0.897949 99.5448 3.86049 99.5449 7.74951V7.88916C99.5448 10.9447 97.9236 12.8431 95.0068 13.5376C98.0626 14.0932 100.239 15.9912 100.239 19.6489V19.7876C100.239 24.4176 97.2754 27.0567 90.5156 27.103H78.2002V0.897949H90.6084ZM121.398 7.28662H111.073V10.9907H119.314V16.8247H111.073V20.7603H122V27.103H102.786V0.897949H121.398V7.28662ZM86.3027 21.5933H88.9424C91.0718 21.5931 92.0439 20.621 92.0439 18.8618V18.7231C92.0439 17.0101 91.118 16.0376 88.7568 16.0376H86.3027V21.5933ZM8.28809 12.7505H10.3711C12.5935 12.7042 13.6582 11.7314 13.6582 9.87939V9.74072C13.6582 7.84243 12.5472 7.10107 10.3711 7.10107H8.28809V12.7505ZM86.3027 11.0835H88.8496C90.9329 11.0834 91.7197 10.3885 91.7197 8.76807V8.62939C91.7197 7.05529 90.8399 6.26807 88.8027 6.26807H86.3027V11.0835Z" fill="black"/>
</svg>
