<svg width="42" height="42" viewBox="0 0 42 42" fill="none" xmlns="http://www.w3.org/2000/svg">
<path d="M19 14.8298H23.0007V17.7785C23.0007 18.0392 22.8954 18.2892 22.7078 18.4735C22.5202 18.6578 22.2658 18.7614 22.0005 18.7614H20.0002C19.7349 18.7614 19.4805 18.6578 19.2929 18.4735C19.1054 18.2892 19 18.0392 19 17.7785V14.8298Z" fill="#121212"/>
<path d="M25.002 27.6073H17.0005C16.2048 27.6073 15.4416 27.2966 14.8788 26.7437C14.3161 26.1907 14 25.4406 14 24.6586V16.7954C14 16.0133 14.3161 15.2633 14.8788 14.7103C15.4416 14.1573 16.2048 13.8467 17.0005 13.8467H25.002C25.7978 13.8467 26.561 14.1573 27.1237 14.7103C27.6864 15.2633 28.0025 16.0133 28.0025 16.7954V24.6586C28.0025 25.4406 27.6864 26.1907 27.1237 26.7437C26.561 27.2966 25.7978 27.6073 25.002 27.6073ZM17.0005 15.8125C16.7353 15.8125 16.4809 15.916 16.2933 16.1004C16.1057 16.2847 16.0004 16.5347 16.0004 16.7954V24.6586C16.0004 24.9193 16.1057 25.1693 16.2933 25.3536C16.4809 25.538 16.7353 25.6415 17.0005 25.6415H25.002C25.2673 25.6415 25.5217 25.538 25.7092 25.3536C25.8968 25.1693 26.0022 24.9193 26.0022 24.6586V16.7954C26.0022 16.5347 25.8968 16.2847 25.7092 16.1004C25.5217 15.916 25.2673 15.8125 25.002 15.8125H17.0005Z" fill="#121212"/>
<path d="M20.0004 23.6758H19.0002C18.7349 23.6758 18.4805 23.5722 18.2929 23.3879C18.1054 23.2036 18 22.9535 18 22.6929C18 22.4322 18.1054 22.1822 18.2929 21.9978C18.4805 21.8135 18.7349 21.71 19.0002 21.71H20.0004C20.2656 21.71 20.52 21.8135 20.7076 21.9978C20.8952 22.1822 21.0005 22.4322 21.0005 22.6929C21.0005 22.9535 20.8952 23.2036 20.7076 23.3879C20.52 23.5722 20.2656 23.6758 20.0004 23.6758Z" fill="#121212"/>
<path d="M35.0054 28.8263L34.0053 32.7579C33.9624 32.9261 33.8751 33.0801 33.7521 33.2044C33.6292 33.3287 33.475 33.4188 33.3051 33.4656C33.2084 33.4965 33.1067 33.5098 33.0051 33.5049C32.8735 33.5057 32.743 33.4809 32.6211 33.432C32.4992 33.3831 32.3884 33.311 32.295 33.2199L31.5748 32.522C30.7525 33.2462 29.8539 33.8821 28.8943 34.419L28.3842 34.6844C26.1061 35.8534 23.5729 36.4606 21.0029 36.4536C16.7587 36.4536 12.6883 34.7968 9.68714 31.8475C6.68602 28.8982 5 24.8981 5 20.7272C4.99962 19.4989 5.14734 18.2748 5.44008 17.0806C5.51723 16.8453 5.68183 16.6471 5.90105 16.5257C6.12027 16.4043 6.378 16.3686 6.62284 16.4256C6.86769 16.4827 7.08165 16.6283 7.22207 16.8335C7.36248 17.0387 7.41903 17.2884 7.38043 17.5328C7.12856 18.5796 7.00101 19.6515 7.00036 20.7272C6.99964 23.1344 7.6415 25.4997 8.86186 27.5869C10.0822 29.6741 11.8384 31.4101 13.955 32.6217C16.0716 33.8334 18.4746 34.4781 20.9241 34.4917C23.3736 34.5052 25.7838 33.8871 27.9142 32.699L28.0042 32.64C28.7738 32.2074 29.4975 31.7003 30.1646 31.1263L29.2944 30.2712C29.1658 30.1451 29.0746 29.987 29.0306 29.8138C28.9865 29.6407 28.9913 29.459 29.0444 29.2883C29.092 29.1214 29.1837 28.9698 29.3102 28.849C29.4366 28.7282 29.5934 28.6424 29.7645 28.6003L33.7652 27.6174C33.9363 27.5689 34.1175 27.5662 34.29 27.6096C34.4625 27.6529 34.6201 27.7408 34.7465 27.864C34.8729 27.9872 34.9636 28.1414 35.0091 28.3106C35.0546 28.4797 35.0534 28.6578 35.0054 28.8263Z" fill="#121212"/>
<path d="M36.9992 20.7271C36.9996 21.9554 36.8519 23.1795 36.5591 24.3737C36.5063 24.5936 36.3781 24.7889 36.1959 24.9267C36.0137 25.0646 35.7888 25.1365 35.559 25.1305C35.4826 25.1407 35.4052 25.1407 35.3289 25.1305C35.072 25.0698 34.85 24.9117 34.7114 24.6907C34.5727 24.4697 34.5286 24.2038 34.5888 23.951C34.8531 22.8958 34.9907 21.8138 34.9989 20.7271C34.9996 18.3199 34.3577 15.9546 33.1374 13.8674C31.917 11.7802 30.1608 10.0442 28.0442 8.83256C25.9276 7.62094 23.5246 6.97617 21.0751 6.96262C18.6257 6.94907 16.2154 7.56721 14.0851 8.75534C13.2814 9.20523 12.5273 9.73554 11.8346 10.3378L12.7048 11.1831C12.8334 11.3092 12.9246 11.4673 12.9686 11.6405C13.0127 11.8136 13.0079 11.9953 12.9548 12.166C12.9072 12.3329 12.8155 12.4845 12.689 12.6053C12.5626 12.7261 12.4058 12.8119 12.2347 12.854L8.23399 13.8369L7.99394 13.8468C7.86231 13.8475 7.73183 13.8227 7.60997 13.7738C7.48811 13.7249 7.37727 13.6528 7.28381 13.5617C7.15352 13.4367 7.06043 13.2791 7.01461 13.1058C6.96878 12.9326 6.97195 12.7504 7.02377 12.5788L8.02395 8.64722C8.06833 8.48088 8.15634 8.32888 8.2792 8.20643C8.40205 8.08397 8.55545 7.99533 8.72408 7.94936C8.89778 7.89721 9.08266 7.89253 9.25887 7.93582C9.43508 7.97911 9.59596 8.06874 9.72426 8.19509L10.4144 8.93226C11.2432 8.2145 12.1448 7.58213 13.1049 7.04509C15.5394 5.68897 18.2932 4.98391 21.0915 5.00028C23.8899 5.01664 26.635 5.75385 29.0529 7.13835C31.4708 8.52286 33.477 10.5062 34.8713 12.8906C36.2656 15.275 36.9993 17.977 36.9992 20.7271Z" fill="#121212"/>
</svg>
