<svg width="12" height="12" viewBox="0 0 12 12" fill="none" xmlns="http://www.w3.org/2000/svg">
<path d="M5.99981 7.25001L9.67481 3.57501C9.79981 3.45001 9.94564 3.38959 10.1123 3.39376C10.279 3.39793 10.4248 3.46251 10.5498 3.58751C10.6748 3.71251 10.7373 3.85834 10.7373 4.02501C10.7373 4.19168 10.6748 4.33751 10.5498 4.46251L6.71231 8.31251C6.61231 8.41251 6.49981 8.48751 6.37481 8.53751C6.24981 8.58751 6.12481 8.61251 5.99981 8.61251C5.87481 8.61251 5.74981 8.58751 5.62481 8.53751C5.49981 8.48751 5.38731 8.41251 5.28731 8.31251L1.43731 4.46251C1.31231 4.33751 1.25189 4.18959 1.25606 4.01876C1.26023 3.84793 1.32481 3.70001 1.44981 3.57501C1.57481 3.45001 1.72064 3.38751 1.88731 3.38751C2.05398 3.38751 2.19981 3.45001 2.32481 3.57501L5.99981 7.25001Z" fill="#121212"/>
</svg>
