<svg width="34" height="34" viewBox="0 0 34 34" fill="none" xmlns="http://www.w3.org/2000/svg">
<path d="M4.00856 17.8378C4.85908 13.5852 5.28433 11.4589 6.68949 10.0895C6.94921 9.83634 7.23017 9.60601 7.52929 9.40099C9.14774 8.29169 11.3162 8.29169 15.653 8.29169H18.3492C22.6861 8.29169 24.8545 8.29169 26.473 9.40099C26.7721 9.60601 27.053 9.83634 27.3128 10.0895C28.7178 11.4589 29.1431 13.5852 29.9937 17.8378C31.2148 23.9431 31.8253 26.9958 30.4198 29.1589C30.1653 29.5506 29.8683 29.9129 29.5342 30.2392C27.6887 32.0417 24.5755 32.0417 18.3492 32.0417H15.653C9.4267 32.0417 6.31358 32.0417 4.46809 30.2392C4.13393 29.9129 3.8369 29.5506 3.58242 29.1589C2.17696 26.9958 2.78749 23.9431 4.00856 17.8378Z" stroke="#121212" stroke-width="2"/>
<path d="M12.25 8.29168V6.70834C12.25 4.085 14.3766 1.95834 17 1.95834C19.6234 1.95834 21.75 4.085 21.75 6.70834V8.29168" stroke="#121212" stroke-width="2" stroke-linecap="round"/>
<path d="M12.5215 22.5417C13.1735 24.3866 14.9331 25.7084 17.0012 25.7084C19.0694 25.7084 20.8289 24.3866 21.4809 22.5417" stroke="#121212" stroke-width="2" stroke-linecap="round"/>
</svg>
