<svg width="48" height="49" viewBox="0 0 48 49" fill="none" xmlns="http://www.w3.org/2000/svg">
<path d="M24 40.4294C24.6 40.4294 25.175 40.3961 25.725 40.3294C26.275 40.2628 26.8333 40.1628 27.4 40.0294L25 36.4294H18V34.4294C18 33.3294 18.3917 32.3878 19.175 31.6044C19.9583 30.8211 20.9 30.4294 22 30.4294H26V24.4294H22C21.4333 24.4294 20.9583 24.2378 20.575 23.8544C20.1917 23.4711 20 22.9961 20 22.4294V18.4294H19.1C18.2333 18.4294 17.5 18.1378 16.9 17.5544C16.3 16.9711 16 16.2461 16 15.3794C16 15.0794 16.0417 14.7794 16.125 14.4794C16.2083 14.1794 16.3333 13.8961 16.5 13.6294L19.6 9.07944C16.2333 10.0461 13.4583 11.9294 11.275 14.7294C9.09167 17.5294 8 20.7628 8 24.4294H10V22.4294C10 21.8628 10.1917 21.3878 10.575 21.0044C10.9583 20.6211 11.4333 20.4294 12 20.4294H16C16.5667 20.4294 17.0417 20.6211 17.425 21.0044C17.8083 21.3878 18 21.8628 18 22.4294V24.4294C18 24.9961 17.8083 25.4711 17.425 25.8544C17.0417 26.2378 16.5667 26.4294 16 26.4294V28.4294C16 29.5294 15.6083 30.4711 14.825 31.2544C14.0417 32.0378 13.1 32.4294 12 32.4294H10.15C11.55 34.8294 13.4667 36.7628 15.9 38.2294C18.3333 39.6961 21.0333 40.4294 24 40.4294ZM39.2 29.3294C39.4667 28.5628 39.6667 27.7711 39.8 26.9544C39.9333 26.1378 40 25.2961 40 24.4294C40 20.6961 38.8667 17.4044 36.6 14.5544C34.3333 11.7044 31.4667 9.82944 28 8.92944V14.4294C29.1 14.4294 30.0417 14.8211 30.825 15.6044C31.6083 16.3878 32 17.3294 32 18.4294V22.4294C32.6333 22.4294 33.2 22.5044 33.7 22.6544C34.2 22.8044 34.6833 23.1128 35.15 23.5794L39.2 29.3294ZM24 44.4294C21.2333 44.4294 18.6333 43.9044 16.2 42.8544C13.7667 41.8044 11.65 40.3794 9.85 38.5794C8.05 36.7794 6.625 34.6628 5.575 32.2294C4.525 29.7961 4 27.1961 4 24.4294C4 21.6628 4.525 19.0628 5.575 16.6294C6.625 14.1961 8.05 12.0794 9.85 10.2794C11.65 8.47944 13.7667 7.05444 16.2 6.00444C18.6333 4.95444 21.2333 4.42944 24 4.42944C26.7667 4.42944 29.3667 4.95444 31.8 6.00444C34.2333 7.05444 36.35 8.47944 38.15 10.2794C39.95 12.0794 41.375 14.1961 42.425 16.6294C43.475 19.0628 44 21.6628 44 24.4294C44 27.1961 43.475 29.7961 42.425 32.2294C41.375 34.6628 39.95 36.7794 38.15 38.5794C36.35 40.3794 34.2333 41.8044 31.8 42.8544C29.3667 43.9044 26.7667 44.4294 24 44.4294Z" fill="url(#paint0_linear_517_10306)"/>
<defs>
<linearGradient id="paint0_linear_517_10306" x1="24" y1="4.42944" x2="24" y2="44.4294" gradientUnits="userSpaceOnUse">
<stop stop-color="#7F19A0"/>
<stop offset="1" stop-color="#C82D8C"/>
</linearGradient>
</defs>
</svg>
