<svg width="28" height="26" viewBox="0 0 28 26" fill="none" xmlns="http://www.w3.org/2000/svg">
<path d="M4.375 2.5H9.625V23.5H4.375C2.443 23.5 0.875 21.932 0.875 20V6C0.875 4.068 2.443 2.5 4.375 2.5Z" fill="#EA3323"/>
<path d="M8.75 16.5V23.5H23.625C25.5579 23.5 27.125 21.9329 27.125 20V16.5H8.75Z" fill="#121212"/>
<path d="M8.75 8.625H27.125V17.375H8.75V8.625Z" fill="white"/>
<path d="M23.625 2.5H8.75V9.5H27.125V6C27.125 4.06712 25.5579 2.5 23.625 2.5Z" fill="#317234"/>
<path opacity="0.15" d="M23.625 2.5H4.375C2.44212 2.5 0.875 4.06712 0.875 6V20C0.875 21.9329 2.44212 23.5 4.375 23.5H23.625C25.5579 23.5 27.125 21.9329 27.125 20V6C27.125 4.06712 25.5579 2.5 23.625 2.5ZM26.25 20C26.25 21.4473 25.0723 22.625 23.625 22.625H4.375C2.92775 22.625 1.75 21.4473 1.75 20V6C1.75 4.55275 2.92775 3.375 4.375 3.375H23.625C25.0723 3.375 26.25 4.55275 26.25 6V20Z" fill="#121212"/>
<path opacity="0.2" d="M23.625 3.375H4.375C2.92513 3.375 1.75 4.55013 1.75 6V6.875C1.75 5.42513 2.92513 4.25 4.375 4.25H23.625C25.0749 4.25 26.25 5.42513 26.25 6.875V6C26.25 4.55013 25.0749 3.375 23.625 3.375Z" fill="white"/>
</svg>
