<svg width="74" height="74" viewBox="0 0 74 74" fill="none" xmlns="http://www.w3.org/2000/svg">
<path d="M50.875 24.6667C50.875 29.2917 49.3333 35.4583 41.9333 37.925C44.0917 32.6833 44.4 27.4417 42.8583 22.5083C40.7 16.0333 33.6083 11.1 28.675 8.325C27.4417 7.4 25.2833 8.63333 25.5917 10.4833C25.5917 13.875 24.6667 18.8083 19.425 24.05C12.6417 30.8333 9.25 37.925 9.25 44.7083C9.25 53.65 15.4167 64.75 27.75 64.75C15.4167 52.4167 24.6667 41.625 24.6667 41.625C27.1333 59.8167 40.0833 64.75 46.25 64.75C51.4917 64.75 61.6667 61.05 61.6667 45.0167C61.6667 35.4583 57.6583 28.0583 54.2667 23.7417C53.3417 22.2 51.1833 23.125 50.875 24.6667Z" fill="url(#paint0_linear_35_2079)"/>
<defs>
<linearGradient id="paint0_linear_35_2079" x1="35.4583" y1="8.01044" x2="35.4583" y2="64.75" gradientUnits="userSpaceOnUse">
<stop stop-color="#7F19A0"/>
<stop offset="1" stop-color="#C82D8C"/>
</linearGradient>
</defs>
</svg>
