<svg width="19" height="18" viewBox="0 0 19 18" fill="none" xmlns="http://www.w3.org/2000/svg">
<path d="M13.0918 6C13.0918 7.125 12.7168 8.625 10.9168 9.225C11.4418 7.95 11.5168 6.675 11.1418 5.475C10.6168 3.9 8.8918 2.7 7.6918 2.025C7.3918 1.8 6.8668 2.1 6.9418 2.55C6.9418 3.375 6.7168 4.575 5.4418 5.85C3.7918 7.5 2.9668 9.225 2.9668 10.875C2.9668 13.05 4.4668 15.75 7.4668 15.75C4.4668 12.75 6.7168 10.125 6.7168 10.125C7.3168 14.55 10.4668 15.75 11.9668 15.75C13.2418 15.75 15.7168 14.85 15.7168 10.95C15.7168 8.625 14.7418 6.825 13.9168 5.775C13.6918 5.4 13.1668 5.625 13.0918 6Z" fill="url(#paint0_linear_517_10214)"/>
<defs>
<linearGradient id="paint0_linear_517_10214" x1="9.3418" y1="1.94849" x2="9.3418" y2="15.75" gradientUnits="userSpaceOnUse">
<stop stop-color="#7F19A0"/>
<stop offset="1" stop-color="#C82D8C"/>
</linearGradient>
</defs>
</svg>
