<svg width="48" height="49" viewBox="0 0 48 49" fill="none" xmlns="http://www.w3.org/2000/svg">
<rect y="0.619873" width="48" height="48" rx="24" fill="url(#paint0_linear_517_10373)"/>
<path d="M29.34 18.0799C29.1027 18.0799 28.8707 18.1503 28.6733 18.2821C28.476 18.414 28.3222 18.6014 28.2313 18.8207C28.1405 19.0399 28.1168 19.2812 28.1631 19.514C28.2094 19.7468 28.3236 19.9606 28.4915 20.1284C28.6593 20.2962 28.8731 20.4105 29.1059 20.4568C29.3387 20.5031 29.5799 20.4794 29.7992 20.3885C30.0185 20.2977 30.2059 20.1439 30.3378 19.9466C30.4696 19.7492 30.54 19.5172 30.54 19.2799C30.54 18.9616 30.4136 18.6564 30.1885 18.4313C29.9635 18.2063 29.6583 18.0799 29.34 18.0799ZM33.94 20.4999C33.9206 19.6702 33.7652 18.8493 33.48 18.0699C33.2257 17.403 32.83 16.7992 32.32 16.2999C31.8248 15.7873 31.2196 15.394 30.55 15.1499C29.7727 14.856 28.9508 14.6971 28.12 14.6799C27.06 14.6199 26.72 14.6199 24 14.6199C21.28 14.6199 20.94 14.6199 19.88 14.6799C19.0492 14.6971 18.2273 14.856 17.45 15.1499C16.7817 15.3965 16.1769 15.7894 15.68 16.2999C15.1674 16.7951 14.7742 17.4003 14.53 18.0699C14.2362 18.8472 14.0772 19.669 14.06 20.4999C14 21.5599 14 21.8999 14 24.6199C14 27.3399 14 27.6799 14.06 28.7399C14.0772 29.5707 14.2362 30.3925 14.53 31.1699C14.7742 31.8394 15.1674 32.4447 15.68 32.9399C16.1769 33.4503 16.7817 33.8432 17.45 34.0899C18.2273 34.3837 19.0492 34.5427 19.88 34.5599C20.94 34.6199 21.28 34.6199 24 34.6199C26.72 34.6199 27.06 34.6199 28.12 34.5599C28.9508 34.5427 29.7727 34.3837 30.55 34.0899C31.2196 33.8457 31.8248 33.4524 32.32 32.9399C32.8322 32.4425 33.2283 31.8381 33.48 31.1699C33.7652 30.3905 33.9206 29.5696 33.94 28.7399C33.94 27.6799 34 27.3399 34 24.6199C34 21.8999 34 21.5599 33.94 20.4999ZM32.14 28.6199C32.1327 29.2546 32.0178 29.8836 31.8 30.4799C31.6403 30.9151 31.3839 31.3083 31.05 31.6299C30.7256 31.9604 30.3332 32.2163 29.9 32.3799C29.3037 32.5976 28.6748 32.7126 28.04 32.7199C27.04 32.7699 26.67 32.7799 24.04 32.7799C21.41 32.7799 21.04 32.7799 20.04 32.7199C19.3809 32.7322 18.7246 32.6307 18.1 32.4199C17.6858 32.2479 17.3114 31.9927 17 31.6699C16.6681 31.3486 16.4148 30.9551 16.26 30.5199C16.0159 29.915 15.8804 29.2718 15.86 28.6199C15.86 27.6199 15.8 27.2499 15.8 24.6199C15.8 21.9899 15.8 21.6199 15.86 20.6199C15.8645 19.9709 15.983 19.3278 16.21 18.7199C16.386 18.2978 16.6563 17.9215 17 17.6199C17.3038 17.276 17.6793 17.003 18.1 16.8199C18.7096 16.5999 19.352 16.485 20 16.4799C21 16.4799 21.37 16.4199 24 16.4199C26.63 16.4199 27 16.4199 28 16.4799C28.6348 16.4872 29.2637 16.6021 29.86 16.8199C30.3144 16.9885 30.7223 17.2627 31.05 17.6199C31.3777 17.9271 31.6338 18.3026 31.8 18.7199C32.0223 19.3288 32.1373 19.9717 32.14 20.6199C32.19 21.6199 32.2 21.9899 32.2 24.6199C32.2 27.2499 32.19 27.6199 32.14 28.6199ZM24 19.4899C22.9858 19.4918 21.995 19.7944 21.1527 20.3593C20.3103 20.9242 19.6544 21.7261 19.2676 22.6636C18.8809 23.6012 18.7807 24.6323 18.9798 25.6268C19.1789 26.6213 19.6682 27.5344 20.3861 28.2509C21.1039 28.9673 22.018 29.4549 23.0129 29.652C24.0077 29.8492 25.0387 29.747 25.9755 29.3584C26.9123 28.9698 27.7129 28.3123 28.2761 27.4689C28.8394 26.6255 29.14 25.6341 29.14 24.6199C29.1413 23.945 29.0092 23.2765 28.7512 22.6528C28.4933 22.0292 28.1146 21.4627 27.6369 20.9859C27.1592 20.5092 26.5919 20.1316 25.9678 19.8748C25.3436 19.6181 24.6749 19.4872 24 19.4899ZM24 27.9499C23.3414 27.9499 22.6976 27.7546 22.15 27.3887C21.6023 27.0228 21.1755 26.5027 20.9235 25.8942C20.6714 25.2857 20.6055 24.6162 20.734 23.9702C20.8625 23.3243 21.1796 22.7309 21.6453 22.2652C22.111 21.7995 22.7044 21.4823 23.3503 21.3539C23.9963 21.2254 24.6659 21.2913 25.2743 21.5434C25.8828 21.7954 26.4029 22.2222 26.7688 22.7698C27.1347 23.3174 27.33 23.9613 27.33 24.6199C27.33 25.0572 27.2439 25.4902 27.0765 25.8942C26.9092 26.2982 26.6639 26.6653 26.3547 26.9745C26.0454 27.2838 25.6784 27.529 25.2743 27.6964C24.8703 27.8637 24.4373 27.9499 24 27.9499Z" fill="white"/>
<defs>
<linearGradient id="paint0_linear_517_10373" x1="24" y1="0.619873" x2="24" y2="48.6199" gradientUnits="userSpaceOnUse">
<stop stop-color="#7F19A0"/>
<stop offset="1" stop-color="#C82D8C"/>
</linearGradient>
</defs>
</svg>
