<svg width="210" height="144" viewBox="0 0 210 144" fill="none" xmlns="http://www.w3.org/2000/svg">
<path d="M210.283 0.412364C210.511 0.256198 210.569 -0.0550216 210.412 -0.282764C210.256 -0.510507 209.945 -0.568531 209.717 -0.412364L210.283 0.412364ZM128.051 55.5876C127.823 55.7438 127.765 56.055 127.921 56.2828C128.077 56.5105 128.388 56.5685 128.616 56.4124L128.051 55.5876ZM81.9494 88.4124C82.1772 88.2562 82.2352 87.945 82.079 87.7172C81.9229 87.4895 81.6116 87.4315 81.3839 87.5876L81.9494 88.4124ZM-0.282764 143.588C-0.510507 143.744 -0.568531 144.055 -0.412364 144.283C-0.256198 144.511 0.0550216 144.569 0.282764 144.412L-0.282764 143.588ZM0.282764 -0.412364C0.0550216 -0.568531 -0.256198 -0.510507 -0.412364 -0.282764C-0.568531 -0.0550216 -0.510507 0.256198 -0.282764 0.412364L0.282764 -0.412364ZM81.3839 56.4124C81.6116 56.5685 81.9229 56.5105 82.079 56.2828C82.2352 56.055 82.1772 55.7438 81.9494 55.5876L81.3839 56.4124ZM128.616 87.5876C128.388 87.4315 128.077 87.4895 127.921 87.7172C127.765 87.945 127.823 88.2562 128.051 88.4124L128.616 87.5876ZM209.717 144.412C209.945 144.569 210.256 144.511 210.412 144.283C210.569 144.055 210.511 143.744 210.283 143.588L209.717 144.412ZM210 0L209.717 -0.412364L128.051 55.5876L128.333 56L128.616 56.4124L210.283 0.412364L210 0ZM81.6667 88L81.3839 87.5876L-0.282764 143.588L0 144L0.282764 144.412L81.9494 88.4124L81.6667 88ZM0 0L-0.282764 0.412364L81.3839 56.4124L81.6667 56L81.9494 55.5876L0.282764 -0.412364L0 0ZM128.333 88L128.051 88.4124L209.717 144.412L210 144L210.283 143.588L128.616 87.5876L128.333 88Z" fill="black"/>
</svg>
