<svg width="42" height="42" viewBox="0 0 42 42" fill="none" xmlns="http://www.w3.org/2000/svg">
<path d="M21.5113 4.90698C23.5601 4.90698 25.2196 7.01259 27.0362 7.73579C28.8528 8.459 31.6938 8.06219 33.0733 9.4318C34.4528 10.8014 34.1045 13.3166 34.883 15.0894C35.6616 16.8622 37.9016 18.347 37.9016 20.267C37.9016 22.187 35.6548 23.7423 34.883 25.4447C34.1113 27.1471 34.5348 29.8095 33.0733 31.1023C31.6118 32.3951 28.9279 32.0815 27.0362 32.7983C25.1445 33.5151 23.5601 35.6271 21.5113 35.6271C19.4626 35.6271 17.803 33.5215 15.9865 32.7983C14.1699 32.0751 11.3289 32.4719 9.94939 31.1023C8.56987 29.7327 8.90451 27.2175 8.13963 25.4447C7.37475 23.6719 5.12109 22.187 5.12109 20.267C5.12109 18.347 7.36792 16.7918 8.13963 15.0894C8.91134 13.387 8.48792 10.7246 9.94939 9.4318C11.4108 8.13899 14.0948 8.4526 15.9865 7.73579C17.8782 7.01899 19.4626 4.90698 21.5113 4.90698ZM21.5113 9.7582C19.2935 9.7582 17.1254 10.3745 15.2814 11.5293C13.4373 12.684 12 14.3252 11.1513 16.2455C10.3025 18.1657 10.0805 20.2787 10.5131 22.3172C10.9458 24.3557 12.0138 26.2282 13.5821 27.6979C15.1503 29.1676 17.1484 30.1685 19.3237 30.574C21.4989 30.9794 23.7536 30.7713 25.8026 29.9759C27.8516 29.1806 29.603 27.8336 30.8352 26.1054C32.0673 24.3773 32.725 22.3455 32.725 20.267C32.716 17.4825 31.5317 14.8145 29.4306 12.8455C27.3296 10.8765 24.4826 9.76664 21.5113 9.7582ZM26.7152 15.6142L27.8148 16.587C27.9272 16.7261 27.9881 16.8958 27.9881 17.0702C27.9881 17.2447 27.9272 17.4144 27.8148 17.5534L20.883 24.7919C20.746 24.9375 20.5765 25.0531 20.3865 25.1305C20.1965 25.2079 19.9906 25.2453 19.7835 25.2399C19.5775 25.2388 19.3737 25.1985 19.1848 25.1215C18.9958 25.0445 18.8254 24.9324 18.684 24.7919L14.9348 21.291C14.8661 21.2359 14.8098 21.1685 14.7691 21.0928C14.7284 21.0171 14.7042 20.9346 14.6979 20.85C14.6915 20.7655 14.7032 20.6806 14.7321 20.6003C14.761 20.52 14.8067 20.4459 14.8665 20.3822L14.9348 20.3118L16.0479 19.3454C16.182 19.2103 16.3673 19.1299 16.564 19.1215C16.7607 19.1131 16.953 19.1774 17.0996 19.3006L17.1474 19.3454L19.804 21.9054L25.6704 15.6334C25.8078 15.5037 25.9937 15.4292 26.1887 15.4256C26.3836 15.4221 26.5725 15.4897 26.7152 15.6142Z" fill="#121212"/>
</svg>
