<svg width="49" height="49" viewBox="0 0 49 49" fill="none" xmlns="http://www.w3.org/2000/svg">
<path d="M22.4004 25.8294L19.5004 22.9794C19.1337 22.6128 18.6754 22.4294 18.1254 22.4294C17.5754 22.4294 17.1004 22.6294 16.7004 23.0294C16.3337 23.3961 16.1504 23.8628 16.1504 24.4294C16.1504 24.9961 16.3337 25.4628 16.7004 25.8294L21.0004 30.1294C21.4004 30.5294 21.8671 30.7294 22.4004 30.7294C22.9337 30.7294 23.4004 30.5294 23.8004 30.1294L32.3004 21.6294C32.7004 21.2294 32.8921 20.7628 32.8754 20.2294C32.8587 19.6961 32.6671 19.2294 32.3004 18.8294C31.9004 18.4294 31.4254 18.2211 30.8754 18.2044C30.3254 18.1878 29.8504 18.3794 29.4504 18.7794L22.4004 25.8294ZM16.8004 43.9294L13.9004 39.0294L8.40039 37.8294C7.90039 37.7294 7.50039 37.4711 7.20039 37.0544C6.90039 36.6378 6.78372 36.1794 6.85039 35.6794L7.40039 30.0294L3.65039 25.7294C3.31706 25.3628 3.15039 24.9294 3.15039 24.4294C3.15039 23.9294 3.31706 23.4961 3.65039 23.1294L7.40039 18.8294L6.85039 13.1794C6.78372 12.6794 6.90039 12.2211 7.20039 11.8044C7.50039 11.3878 7.90039 11.1294 8.40039 11.0294L13.9004 9.82944L16.8004 4.92944C17.0671 4.4961 17.4337 4.20444 17.9004 4.05444C18.3671 3.90444 18.8337 3.92944 19.3004 4.12944L24.5004 6.32944L29.7004 4.12944C30.1671 3.92944 30.6337 3.90444 31.1004 4.05444C31.5671 4.20444 31.9337 4.4961 32.2004 4.92944L35.1004 9.82944L40.6004 11.0294C41.1004 11.1294 41.5004 11.3878 41.8004 11.8044C42.1004 12.2211 42.2171 12.6794 42.1504 13.1794L41.6004 18.8294L45.3504 23.1294C45.6837 23.4961 45.8504 23.9294 45.8504 24.4294C45.8504 24.9294 45.6837 25.3628 45.3504 25.7294L41.6004 30.0294L42.1504 35.6794C42.2171 36.1794 42.1004 36.6378 41.8004 37.0544C41.5004 37.4711 41.1004 37.7294 40.6004 37.8294L35.1004 39.0294L32.2004 43.9294C31.9337 44.3628 31.5671 44.6544 31.1004 44.8044C30.6337 44.9544 30.1671 44.9294 29.7004 44.7294L24.5004 42.5294L19.3004 44.7294C18.8337 44.9294 18.3671 44.9544 17.9004 44.8044C17.4337 44.6544 17.0671 44.3628 16.8004 43.9294Z" fill="url(#paint0_linear_517_10296)"/>
<defs>
<linearGradient id="paint0_linear_517_10296" x1="24.5004" y1="3.95801" x2="24.5004" y2="44.9009" gradientUnits="userSpaceOnUse">
<stop stop-color="#7F19A0"/>
<stop offset="1" stop-color="#C82D8C"/>
</linearGradient>
</defs>
</svg>
