<svg width="42" height="42" viewBox="0 0 42 42" fill="none" xmlns="http://www.w3.org/2000/svg">
<path d="M14.9942 24.2268H5.19674C4.53504 24.2268 4 24.7533 4 25.4028C4 26.0523 4.53504 26.5789 5.19674 26.5789H14.9942C15.6554 26.5789 16.1907 26.0523 16.1907 25.4028C16.1907 24.7533 15.6554 24.2268 14.9942 24.2268Z" fill="#121212"/>
<path d="M16.1848 19.5234H8.78065C8.11924 19.5234 7.58398 20.0501 7.58398 20.6997C7.58398 21.3491 8.11924 21.8758 8.78065 21.8758H16.1847C16.8463 21.8758 17.3816 21.3491 17.3816 20.6997C17.3816 20.05 16.8464 19.5234 16.1848 19.5234Z" fill="#121212"/>
<path d="M18.5743 15.9951C18.5743 15.3457 18.0391 14.819 17.3776 14.819H12.3667C11.705 14.819 11.1699 15.3457 11.1699 15.9951C11.1699 16.6446 11.705 17.1713 12.3667 17.1713H17.3776C18.0391 17.1714 18.5743 16.6447 18.5743 15.9951Z" fill="#121212"/>
<path d="M38.2124 12.8797C37.726 12.3204 37.0181 12 36.2686 12H22.5493C21.2813 12 20.2191 12.8935 20.0215 14.126L18.0537 26.4985C17.9394 27.2243 18.152 27.9606 18.6378 28.5188C19.1242 29.0781 19.8321 29.3987 20.5816 29.3987H34.301C35.569 29.3987 36.6311 28.505 36.8288 27.2725L38.7964 14.9002C38.9108 14.1742 38.6984 13.4379 38.2124 12.8797ZM34.4633 26.9085C34.4506 26.9882 34.3825 27.0463 34.301 27.0463H20.5816C20.5335 27.0463 20.488 27.0252 20.4564 26.9899C20.425 26.9539 20.4121 26.9057 20.4192 26.8596L22.387 14.49C22.3998 14.4101 22.4677 14.3521 22.5494 14.3521H26.9715L26.3965 17.3955C26.353 17.6251 26.4151 17.8622 26.5679 18.0421C26.72 18.2224 26.9457 18.3263 27.1839 18.3263H29.9666C30.3523 18.3263 30.6839 18.0559 30.754 17.6832L31.3842 14.3523H36.2686C36.3167 14.3523 36.3624 14.3736 36.3938 14.4086C36.4252 14.4449 36.4381 14.4931 36.431 14.539L34.4633 26.9085Z" fill="#121212"/>
</svg>
