<svg width="122" height="28" viewBox="0 0 122 28" fill="none" xmlns="http://www.w3.org/2000/svg">
<path d="M10.6953 0.929443C13.2417 0.929451 15.3713 1.25412 17.0381 1.99487C20.0939 3.29127 21.668 5.7917 21.668 9.40308V9.54175C21.6679 13.153 19.8164 15.2368 17.2236 16.3943L23.2422 27.0896H14.4922L10.3711 19.45L9.62988 18.1072H8.28809V27.1355H0V0.929443H10.6953ZM35.6924 0.929443V7.31909H25.3682V11.0232H33.5625V16.8572H25.3682V20.7927H36.2949V27.1355H25.0898L19.3027 16.4402C21.8955 15.2827 23.7471 13.199 23.7471 9.58765V9.44897C23.7471 5.0968 21.4785 2.36503 17.0801 1.34644V0.929443H35.6924ZM50.8838 18.4773L55.7451 0.93042H63.5234L55.0508 27.1355H45.6982L37.04 0.93042H46.0225L50.8838 18.4773ZM73.9873 27.1355H65.6074V0.93042H73.9873V27.1355ZM90.6084 0.93042C97.0439 0.93042 99.5448 3.89296 99.5449 7.78198V7.92163C99.5448 10.9772 97.9236 12.8756 95.0068 13.5701C98.0626 14.1257 100.239 16.0237 100.239 19.6814V19.8201C100.239 24.45 97.2754 27.0892 90.5156 27.1355H78.2002V0.93042H90.6084ZM121.398 7.31909H111.073V11.0232H119.314V16.8572H111.073V20.7927H122V27.1355H102.786V0.93042H121.398V7.31909ZM86.3027 21.6257H88.9424C91.0718 21.6256 92.0439 20.6535 92.0439 18.8943V18.7556C92.0439 17.0426 91.118 16.0701 88.7568 16.0701H86.3027V21.6257ZM8.28809 12.783H10.3711C12.5935 12.7367 13.6582 11.7639 13.6582 9.91187V9.77319C13.6582 7.8749 12.5472 7.13354 10.3711 7.13354H8.28809V12.783ZM86.3027 11.116H88.8496C90.9329 11.1159 91.7197 10.4209 91.7197 8.80054V8.66187C91.7197 7.08776 90.8399 6.30054 88.8027 6.30054H86.3027V11.116Z" fill="white"/>
</svg>
